<?xml version="1.0" standalone="no"?>
<!DOCTYPE svg PUBLIC "-//W3C//DTD SVG 20010904//EN"
 "http://www.w3.org/TR/2001/REC-SVG-20010904/DTD/svg10.dtd">
<svg version="1.0" xmlns="http://www.w3.org/2000/svg"
 width="630.000000pt" height="630.000000pt" viewBox="0 0 630.000000 630.000000"
 preserveAspectRatio="xMidYMid meet">

<g transform="translate(0.000000,630.000000) scale(0.100000,-0.100000)"
fill="blue" stroke="blue">
<path d="M2815 5876 c-438 -49 -901 -187 -1265 -377 -131 -69 -355 -216 -480
-315 -130 -104 -365 -345 -466 -479 -281 -374 -430 -731 -506 -1210 -17 -108
-17 -523 0 -640 115 -791 547 -1453 1252 -1918 250 -164 599 -321 895 -402
128 -34 219 -53 177 -35 -14 6 -20 14 -16 21 5 8 1 10 -14 7 -13 -4 -23 0 -26
8 -3 8 -15 14 -26 14 -11 0 -20 4 -20 9 0 5 -11 12 -24 15 -13 3 -34 17 -47
31 -13 13 -27 25 -32 25 -12 0 -89 52 -116 77 -13 13 -39 32 -57 44 -19 11
-31 26 -28 31 4 7 2 8 -4 4 -7 -4 -12 -2 -12 5 0 7 -2 10 -5 7 -3 -3 -22 11
-43 31 -20 20 -58 54 -85 75 -26 22 -45 41 -43 43 2 2 -26 34 -63 71 -36 37
-67 73 -69 80 -1 8 -22 34 -45 59 -23 25 -42 50 -42 57 0 7 -24 42 -53 79 -28
37 -52 69 -52 73 0 3 -16 29 -35 58 -19 29 -35 58 -35 65 0 6 -5 11 -11 11 -5
0 -8 4 -5 9 4 5 -10 38 -29 74 -19 36 -35 78 -35 95 0 37 -47 115 -123 207
-207 248 -363 563 -431 866 -127 573 14 1168 388 1632 44 55 100 125 124 154
23 29 42 62 42 74 0 12 16 43 35 70 20 26 38 58 40 69 2 12 18 38 35 58 17 20
48 57 68 81 20 24 45 51 55 60 9 8 17 22 17 29 0 8 26 39 58 69 31 30 50 51
42 47 -18 -8 55 62 98 95 17 13 29 27 27 31 -3 4 5 15 18 23 12 8 33 24 46 36
13 11 28 21 33 21 12 0 48 38 48 51 0 5 4 7 10 4 5 -3 18 -1 27 4 10 6 14 11
9 11 -14 0 25 40 39 40 7 0 28 14 46 30 17 17 38 29 46 26 8 -4 11 -1 8 5 -4
6 2 13 14 16 12 3 21 9 21 13 0 5 14 13 31 19 19 7 28 15 23 22 -5 9 -1 10 14
7 12 -4 20 -2 17 2 -5 8 32 29 78 44 10 3 16 10 13 14 -3 5 6 7 19 4 19 -3 24
-1 20 9 -4 10 13 20 54 33 33 10 62 25 65 33 3 7 14 13 25 13 11 0 22 4 26 9
3 6 26 13 51 17 25 3 48 13 51 20 3 8 10 14 17 14 6 0 30 9 51 20 22 12 59 23
83 27 23 3 42 9 42 14 0 4 21 11 48 14 26 4 58 10 72 13 14 4 113 6 220 6 157
0 218 -4 315 -22 356 -64 628 -177 955 -395 264 -176 554 -464 741 -737 199
-290 350 -644 420 -985 10 -49 16 -91 14 -94 -3 -2 -46 8 -97 24 -163 49 -230
64 -225 52 27 -72 62 -229 78 -353 18 -142 20 -692 3 -874 -43 -457 -194 -859
-460 -1225 -77 -106 -274 -320 -361 -394 -29 -25 -49 -49 -46 -54 3 -6 2 -7
-3 -4 -6 3 -48 -24 -94 -59 -47 -36 -116 -81 -155 -99 -87 -42 -278 -105 -408
-136 -55 -13 -94 -25 -88 -27 17 -6 331 75 442 114 640 223 1117 559 1474
1039 256 344 416 730 481 1160 22 148 25 502 5 645 -82 597 -342 1115 -775
1545 -492 490 -1113 789 -1846 891 -158 21 -606 27 -765 10z m1970 -467 c220
-126 409 -272 600 -464 151 -151 234 -251 350 -425 680 -1018 552 -2332 -310
-3195 -79 -79 -109 -102 -142 -111 -24 -6 -43 -10 -43 -9 0 1 36 39 81 86 448
467 693 982 755 1592 72 691 -189 1432 -694 1977 -186 201 -360 349 -587 498
-157 104 -155 102 -124 102 14 0 65 -23 114 -51z"/>
<path d="M3000 5180 c-586 -56 -1133 -420 -1462 -972 -453 -761 -417 -1740 90
-2417 206 -275 515 -507 832 -623 125 -46 80 -40 -75 9 -235 76 -431 174 -670
338 -89 60 -148 95 -165 95 -24 -1 -24 -2 15 -36 124 -110 442 -285 660 -363
202 -72 435 -126 493 -115 20 4 33 3 29 -2 -5 -8 139 -18 248 -18 148 2 395
26 500 49 764 172 1371 823 1534 1645 59 300 56 634 -8 928 -166 759 -732
1332 -1446 1463 -128 23 -426 33 -575 19z m315 -124 c50 -33 132 -124 189
-210 48 -73 58 -84 97 -95 68 -20 270 -100 304 -120 16 -10 57 -33 90 -51 170
-92 416 -319 526 -485 76 -114 134 -225 119 -225 -6 0 -44 10 -84 22 -66 19
-76 25 -91 57 -20 42 -72 128 -94 154 -10 13 -17 14 -22 5 -5 -8 -16 -1 -36
23 -214 257 -370 377 -658 504 -63 27 -177 55 -223 54 -15 0 7 -9 48 -20 153
-41 352 -143 483 -248 151 -120 309 -316 396 -490 364 -732 118 -1676 -554
-2125 -146 -97 -281 -158 -447 -201 -104 -27 -78 -33 39 -9 41 8 82 13 90 10
8 -3 11 -1 8 4 -6 10 20 15 58 12 10 -1 15 3 12 8 -3 6 -2 10 4 10 19 0 17
-26 -7 -84 -35 -88 -108 -230 -125 -244 -19 -16 -175 -32 -313 -32 -463 -1
-889 148 -1243 434 -83 67 -84 68 -51 25 19 -24 88 -99 154 -167 66 -67 115
-122 109 -122 -22 0 -130 90 -218 182 -679 704 -744 1884 -150 2713 84 117
153 194 194 215 20 10 56 39 81 65 68 70 195 176 288 239 159 108 255 145 462
180 177 30 235 34 385 33 130 -2 155 -5 180 -21z m1228 -1263 c19 -49 42 -115
52 -148 23 -79 73 -311 86 -400 13 -87 6 -392 -11 -460 -78 -310 -219 -556
-441 -771 -81 -78 -187 -159 -196 -150 -4 3 -2 6 4 6 6 0 13 7 16 14 4 11 1
13 -11 9 -9 -3 22 34 70 83 230 236 391 542 460 874 25 125 35 412 18 547 -15
119 -57 291 -97 394 -27 68 -28 77 -14 86 9 6 19 9 22 7 4 -2 23 -43 42 -91z
m-1946 -2669 c-3 -3 -12 -4 -19 -1 -8 3 -5 6 6 6 11 1 17 -2 13 -5z m46 -11
c-7 -2 -19 -2 -25 0 -7 3 -2 5 12 5 14 0 19 -2 13 -5z m44 -9 c-3 -3 -12 -4
-19 -1 -8 3 -5 6 6 6 11 1 17 -2 13 -5z"/>
<path d="M3368 4693 c6 -2 18 -2 25 0 6 3 1 5 -13 5 -14 0 -19 -2 -12 -5z"/>
<path d="M3218 1573 c6 -2 18 -2 25 0 6 3 1 5 -13 5 -14 0 -19 -2 -12 -5z"/>
<path d="M2518 5163 c7 -3 16 -2 19 1 4 3 -2 6 -13 5 -11 0 -14 -3 -6 -6z"/>
<path d="M2380 5135 c-146 -40 -290 -94 -417 -155 -68 -32 -123 -62 -123 -65
0 -16 67 9 199 73 79 39 203 90 275 113 185 58 183 57 166 57 -8 1 -53 -10
-100 -23z"/>
<path d="M3748 463 c7 -3 16 -2 19 1 4 3 -2 6 -13 5 -11 0 -14 -3 -6 -6z"/>
<path d="M3688 453 c7 -3 16 -2 19 1 4 3 -2 6 -13 5 -11 0 -14 -3 -6 -6z"/>
</g>
</svg>
